<svg xmlns="http://www.w3.org/2000/svg" viewBox="0 0 1227.93 194.79"><defs><style>.a{fill:#fff;}</style></defs><title>metapipe-w-text</title><path class="a" d="M177.4,18c.37.06.56.25.56.57v133.8a.5.5,0,0,1-.56.56H137.78a.5.5,0,0,1-.56-.56V55.17h-19v97.2c0,.37-.22.56-.66.56H78a.5.5,0,0,1-.56-.56V55.17H58.74v97.2a.49.49,0,0,1-.56.56H18.66c-.44,0-.66-.19-.66-.56V18.57a.6.6,0,0,1,.66-.57Z" transform="translate(-18 -18)"/><path class="a" d="M187.37,18.57A.6.6,0,0,1,188,18H346.77c.37.07.56.25.56.57V54.23a.49.49,0,0,1-.56.56H228.21V67.21H346.77c.37.06.56.26.56.57v35.66a.5.5,0,0,1-.56.56H228.21v12.14H346.77c.37.06.56.25.56.57v35.66a.5.5,0,0,1-.56.56H188c-.44,0-.66-.19-.66-.56Z" transform="translate(-18 -18)"/><path class="a" d="M415.08,55.73H357.4c-.44,0-.66-.18-.66-.56V18.57a.6.6,0,0,1,.66-.57H516.14c.37.07.56.25.56.57v36.6a.49.49,0,0,1-.56.56H458.08v96.64c0,.37-.22.56-.66.56H415.74c-.44,0-.66-.19-.66-.56Z" transform="translate(-18 -18)"/><path class="a" d="M566.85,67.21h78.47V54.79H566.85Zm0,36.79v48.37a.49.49,0,0,1-.56.56H526.77c-.44,0-.66-.18-.66-.56V18.57a.6.6,0,0,1,.66-.57H685.41q.66.09.66.57v133.8c0,.38-.22.56-.66.56H645.89a.5.5,0,0,1-.57-.56V104Z" transform="translate(-18 -18)"/><path class="a" d="M736.5,67.21h78.29V54.79H736.5Zm-41-48.64a.6.6,0,0,1,.66-.57H854.87q.57.09.57.57v84.87a.5.5,0,0,1-.57.56H736.32v48.37c0,.38-.22.56-.66.56H696.14c-.44,0-.66-.18-.66-.56V18.57Z" transform="translate(-18 -18)"/><path class="a" d="M906.53,18q.66.09.66.57v133.8c0,.37-.22.56-.66.56h-41c-.44,0-.66-.19-.66-.56V18.57a.6.6,0,0,1,.66-.57Z" transform="translate(-18 -18)"/><path class="a" d="M957.63,67.21h78.28V54.79H957.63Zm-41-48.64a.61.61,0,0,1,.66-.57H1076c.37.06.56.25.56.57v84.87a.5.5,0,0,1-.56.56H957.44v48.37c0,.38-.22.56-.66.56H917.26c-.44,0-.66-.18-.66-.56Z" transform="translate(-18 -18)"/><path class="a" d="M1086,18.57a.6.6,0,0,1,.66-.57h158.74c.37.07.56.25.56.57V54.23a.49.49,0,0,1-.56.56H1126.81V67.21h118.56c.37.06.56.26.56.57v35.66a.5.5,0,0,1-.56.56H1126.81v12.14h118.56c.37.06.56.25.56.57v35.66a.5.5,0,0,1-.56.56H1086.63c-.44,0-.66-.19-.66-.56Z" transform="translate(-18 -18)"/><path class="a" d="M75.27,195.26l5.19,1.65a11.68,11.68,0,0,1-4,6.44,11.33,11.33,0,0,1-7,2.1,11.41,11.41,0,0,1-8.67-3.6q-3.39-3.61-3.4-9.86,0-6.62,3.42-10.27a11.71,11.71,0,0,1,9-3.66,11,11,0,0,1,7.89,2.88,10.34,10.34,0,0,1,2.71,4.87l-5.29,1.27a5.49,5.49,0,0,0-5.58-4.45,6,6,0,0,0-4.78,2.12q-1.83,2.12-1.83,6.84,0,5,1.8,7.16a5.88,5.88,0,0,0,4.7,2.13,5.39,5.39,0,0,0,3.67-1.35A8,8,0,0,0,75.27,195.26Z" transform="translate(-18 -18)"/><path class="a" d="M85,205V178.51h5.07V205Z" transform="translate(-18 -18)"/><path class="a" d="M94.11,195.14a10.41,10.41,0,0,1,1.25-4.9,8.54,8.54,0,0,1,3.53-3.61,10.42,10.42,0,0,1,5.11-1.25,9.54,9.54,0,0,1,7.13,2.83,9.72,9.72,0,0,1,2.78,7.14,9.87,9.87,0,0,1-2.81,7.22,9.48,9.48,0,0,1-7.07,2.86,11.08,11.08,0,0,1-5-1.19,8.14,8.14,0,0,1-3.64-3.49A11.68,11.68,0,0,1,94.11,195.14Zm5.21.27a6.37,6.37,0,0,0,1.35,4.37,4.43,4.43,0,0,0,6.68,0,6.48,6.48,0,0,0,1.34-4.41,6.34,6.34,0,0,0-1.34-4.33,4.43,4.43,0,0,0-6.68,0A6.35,6.35,0,0,0,99.32,195.41Z" transform="translate(-18 -18)"/><path class="a" d="M130.52,205v-2.87a7.44,7.44,0,0,1-2.76,2.42,7.72,7.72,0,0,1-3.6.88,7,7,0,0,1-3.47-.85,5,5,0,0,1-2.22-2.38,10.59,10.59,0,0,1-.69-4.25V185.81h5.08v8.82a24.2,24.2,0,0,0,.28,5,2.6,2.6,0,0,0,1,1.44,3.1,3.1,0,0,0,1.88.54,4,4,0,0,0,2.33-.72,3.66,3.66,0,0,0,1.41-1.77,20.64,20.64,0,0,0,.38-5.17v-8.1h5.07V205Z" transform="translate(-18 -18)"/><path class="a" d="M158.09,205h-4.72v-2.82a7.64,7.64,0,0,1-2.77,2.45,7.07,7.07,0,0,1-3.23.8,7.29,7.29,0,0,1-5.66-2.66q-2.36-2.67-2.36-7.44t2.3-7.41a7.49,7.49,0,0,1,5.8-2.54,7.19,7.19,0,0,1,5.56,2.67v-9.54h5.08Zm-13.55-10a8.77,8.77,0,0,0,.85,4.45,3.84,3.84,0,0,0,3.43,2,3.71,3.71,0,0,0,3-1.49,6.87,6.87,0,0,0,1.23-4.45c0-2.2-.4-3.79-1.19-4.76a3.91,3.91,0,0,0-6.08,0A6.46,6.46,0,0,0,144.54,195Z" transform="translate(-18 -18)"/><path class="a" d="M177,205l-6.07-19.19h4.93l3.6,12.58,3.3-12.58h4.9l3.2,12.58,3.66-12.58h5L193.32,205h-4.88l-3.31-12.34L181.88,205Z" transform="translate(-18 -18)"/><path class="a" d="M201,195.14a10.39,10.39,0,0,1,1.24-4.9,8.54,8.54,0,0,1,3.53-3.61,10.42,10.42,0,0,1,5.11-1.25,9.58,9.58,0,0,1,7.14,2.83,9.76,9.76,0,0,1,2.78,7.14,9.91,9.91,0,0,1-2.81,7.22,9.48,9.48,0,0,1-7.07,2.86,11.12,11.12,0,0,1-5-1.19,8.19,8.19,0,0,1-3.64-3.49A11.68,11.68,0,0,1,201,195.14Zm5.2.27a6.37,6.37,0,0,0,1.35,4.37,4.43,4.43,0,0,0,6.68,0,6.43,6.43,0,0,0,1.35-4.41,6.29,6.29,0,0,0-1.35-4.33,4.43,4.43,0,0,0-6.68,0A6.35,6.35,0,0,0,206.18,195.41Z" transform="translate(-18 -18)"/><path class="a" d="M229.61,205h-5.07V185.81h4.71v2.73a8.17,8.17,0,0,1,2.18-2.55,4,4,0,0,1,2.19-.61,6.41,6.41,0,0,1,3.34,1l-1.57,4.42a4.47,4.47,0,0,0-2.38-.83,2.85,2.85,0,0,0-1.81.59,4,4,0,0,0-1.16,2.12,29.61,29.61,0,0,0-.43,6.43Z" transform="translate(-18 -18)"/><path class="a" d="M239,205V178.51h5.08v14.06l5.94-6.76h6.25l-6.56,7,7,12.18h-5.47l-4.83-8.62-2.36,2.48V205Z" transform="translate(-18 -18)"/><path class="a" d="M257.51,185.81h2.81v-1.44a9.69,9.69,0,0,1,.52-3.62,4,4,0,0,1,1.9-1.94,7.25,7.25,0,0,1,3.49-.75,14.27,14.27,0,0,1,4.25.65l-.69,3.54a10.17,10.17,0,0,0-2.33-.29,2.1,2.1,0,0,0-1.58.52,3,3,0,0,0-.48,2v1.35h3.8v4h-3.8V205h-5.08V189.81h-2.81Z" transform="translate(-18 -18)"/><path class="a" d="M272.05,205V178.51h5.08V205Z" transform="translate(-18 -18)"/><path class="a" d="M281.16,195.14a10.39,10.39,0,0,1,1.24-4.9,8.54,8.54,0,0,1,3.53-3.61,10.42,10.42,0,0,1,5.11-1.25,9.54,9.54,0,0,1,7.13,2.83,9.73,9.73,0,0,1,2.79,7.14,9.91,9.91,0,0,1-2.81,7.22,9.5,9.5,0,0,1-7.08,2.86,11.08,11.08,0,0,1-5-1.19,8.19,8.19,0,0,1-3.64-3.49A11.68,11.68,0,0,1,281.16,195.14Zm5.2.27a6.37,6.37,0,0,0,1.35,4.37,4.43,4.43,0,0,0,6.68,0,6.43,6.43,0,0,0,1.34-4.41,6.29,6.29,0,0,0-1.34-4.33,4.43,4.43,0,0,0-6.68,0A6.35,6.35,0,0,0,286.36,195.41Z" transform="translate(-18 -18)"/><path class="a" d="M308.51,205l-6.07-19.19h4.93L311,198.39l3.31-12.58h4.9l3.19,12.58L326,185.81h5L324.88,205H320l-3.31-12.34L313.44,205Z" transform="translate(-18 -18)"/><path class="a" d="M360.72,191.49l-5,.9a3.69,3.69,0,0,0-1.15-2.26,3.5,3.5,0,0,0-2.32-.76,3.8,3.8,0,0,0-3,1.31,6.75,6.75,0,0,0-1.13,4.38c0,2.28.38,3.89,1.15,4.83a3.76,3.76,0,0,0,3.08,1.41,3.44,3.44,0,0,0,2.37-.83,5,5,0,0,0,1.3-2.82l5,.85a8.87,8.87,0,0,1-3,5.18,9.22,9.22,0,0,1-5.91,1.75,8.79,8.79,0,0,1-6.71-2.65,10.29,10.29,0,0,1-2.5-7.36c0-3.16.84-5.63,2.51-7.39a8.91,8.91,0,0,1,6.79-2.65,9.25,9.25,0,0,1,5.58,1.51A8.32,8.32,0,0,1,360.72,191.49Z" transform="translate(-18 -18)"/><path class="a" d="M363.39,195.14a10.41,10.41,0,0,1,1.25-4.9,8.54,8.54,0,0,1,3.53-3.61,10.42,10.42,0,0,1,5.11-1.25,9.54,9.54,0,0,1,7.13,2.83,9.72,9.72,0,0,1,2.78,7.14,9.87,9.87,0,0,1-2.81,7.22,9.48,9.48,0,0,1-7.07,2.86,11.08,11.08,0,0,1-5-1.19,8.14,8.14,0,0,1-3.64-3.49A11.68,11.68,0,0,1,363.39,195.14Zm5.21.27a6.37,6.37,0,0,0,1.35,4.37,4.43,4.43,0,0,0,6.68,0,6.48,6.48,0,0,0,1.34-4.41,6.34,6.34,0,0,0-1.34-4.33,4.43,4.43,0,0,0-6.68,0A6.35,6.35,0,0,0,368.6,195.41Z" transform="translate(-18 -18)"/><path class="a" d="M404.62,205h-5.08v-9.79a15.09,15.09,0,0,0-.32-4,2.84,2.84,0,0,0-1.06-1.42,3,3,0,0,0-1.76-.51A4,4,0,0,0,394,190a3.68,3.68,0,0,0-1.43,1.91,16.55,16.55,0,0,0-.39,4.41V205h-5.08V185.81h4.72v2.82a7.67,7.67,0,0,1,6.32-3.25,7.51,7.51,0,0,1,3.07.61,5.11,5.11,0,0,1,2.11,1.54,5.78,5.78,0,0,1,1,2.13,15.68,15.68,0,0,1,.28,3.42Z" transform="translate(-18 -18)"/><path class="a" d="M408,199.53l5.1-.78A3.66,3.66,0,0,0,414.4,201a4.44,4.44,0,0,0,2.78.77,5,5,0,0,0,3-.73,1.59,1.59,0,0,0,.67-1.35,1.33,1.33,0,0,0-.36-1,4.18,4.18,0,0,0-1.7-.67c-4.1-.9-6.69-1.73-7.79-2.47a4.94,4.94,0,0,1-2.27-4.32,5.3,5.3,0,0,1,2-4.19q2-1.7,6.1-1.7a10.72,10.72,0,0,1,5.86,1.28,6.58,6.58,0,0,1,2.63,3.8l-4.78.88a3,3,0,0,0-1.17-1.71,4.24,4.24,0,0,0-2.45-.6,5.56,5.56,0,0,0-2.87.56,1.19,1.19,0,0,0-.58,1,1.12,1.12,0,0,0,.51.92,19,19,0,0,0,4.74,1.43,13.92,13.92,0,0,1,5.66,2.26A4.68,4.68,0,0,1,425.9,199a5.81,5.81,0,0,1-2.2,4.54q-2.2,1.89-6.52,1.89a10.72,10.72,0,0,1-6.21-1.59A7.35,7.35,0,0,1,408,199.53Z" transform="translate(-18 -18)"/><path class="a" d="M443,205v-2.87a7.44,7.44,0,0,1-2.76,2.42,7.72,7.72,0,0,1-3.6.88,7,7,0,0,1-3.47-.85,4.92,4.92,0,0,1-2.22-2.38,10.59,10.59,0,0,1-.69-4.25V185.81h5.08v8.82a24.2,24.2,0,0,0,.28,5,2.6,2.6,0,0,0,1,1.44,3.1,3.1,0,0,0,1.88.54,4,4,0,0,0,2.33-.72,3.66,3.66,0,0,0,1.41-1.77,20.83,20.83,0,0,0,.37-5.17v-8.1h5.08V205Z" transform="translate(-18 -18)"/><path class="a" d="M453,205V178.51H458V205Z" transform="translate(-18 -18)"/><path class="a" d="M472,185.81v4.05h-3.47v7.73a18.59,18.59,0,0,0,.1,2.74,1.06,1.06,0,0,0,.45.64,1.41,1.41,0,0,0,.86.25,6.64,6.64,0,0,0,2-.48l.43,3.93a10,10,0,0,1-4,.76A6.29,6.29,0,0,1,466,205a3.51,3.51,0,0,1-1.62-1.19,4.74,4.74,0,0,1-.71-2,24,24,0,0,1-.17-3.58v-8.36h-2.33v-4.05h2.33V182l5.1-3v6.77Z" transform="translate(-18 -18)"/><path class="a" d="M475.55,183.21v-4.7h5.08v4.7Zm0,21.79V185.81h5.08V205Z" transform="translate(-18 -18)"/><path class="a" d="M503.28,205h-5.07v-9.79a14.94,14.94,0,0,0-.33-4,2.84,2.84,0,0,0-1.06-1.42,3,3,0,0,0-1.76-.51,4,4,0,0,0-2.37.73,3.68,3.68,0,0,0-1.43,1.91,16.55,16.55,0,0,0-.39,4.41V205h-5.08V185.81h4.72v2.82a7.67,7.67,0,0,1,6.32-3.25,7.48,7.48,0,0,1,3.07.61,5.11,5.11,0,0,1,2.11,1.54,5.78,5.78,0,0,1,1,2.13,15.68,15.68,0,0,1,.28,3.42Z" transform="translate(-18 -18)"/><path class="a" d="M508,206.26l5.8.71a2,2,0,0,0,.67,1.39,3.83,3.83,0,0,0,2.28.54,6,6,0,0,0,3-.59,2.53,2.53,0,0,0,1-1.29,7.93,7.93,0,0,0,.23-2.33v-2.8a6.86,6.86,0,0,1-5.74,3.11,7.08,7.08,0,0,1-6.13-3.27,11.12,11.12,0,0,1-1.77-6.43c0-3.22.78-5.67,2.32-7.37a7.51,7.51,0,0,1,5.78-2.55,7,7,0,0,1,5.87,3.13v-2.7H526V203a17.31,17.31,0,0,1-.56,5.08,6.32,6.32,0,0,1-1.57,2.64,7.12,7.12,0,0,1-2.7,1.49,14,14,0,0,1-4.28.55c-3.25,0-5.55-.56-6.92-1.67a5.26,5.26,0,0,1-2-4.24C507.94,206.71,508,206.51,508,206.26ZM512.5,195a6.91,6.91,0,0,0,1.18,4.47,3.65,3.65,0,0,0,2.92,1.42,4,4,0,0,0,3.14-1.46,6.28,6.28,0,0,0,1.28-4.3,6.71,6.71,0,0,0-1.23-4.43,3.9,3.9,0,0,0-3.1-1.45,3.77,3.77,0,0,0-3,1.42A6.66,6.66,0,0,0,512.5,195Z" transform="translate(-18 -18)"/><path class="a" d="M539.09,185.81h2.82v-1.44a9.72,9.72,0,0,1,.51-3.62,4.13,4.13,0,0,1,1.9-1.94,7.29,7.29,0,0,1,3.5-.75,14.21,14.21,0,0,1,4.24.65l-.69,3.54A10.11,10.11,0,0,0,549,182a2.1,2.1,0,0,0-1.58.52,3,3,0,0,0-.48,2v1.35h3.8v4H547V205h-5.07V189.81h-2.82Z" transform="translate(-18 -18)"/><path class="a" d="M552.46,195.14a10.29,10.29,0,0,1,1.25-4.9,8.48,8.48,0,0,1,3.53-3.61,10.36,10.36,0,0,1,5.1-1.25,9.58,9.58,0,0,1,7.14,2.83,9.76,9.76,0,0,1,2.78,7.14,9.91,9.91,0,0,1-2.81,7.22,9.48,9.48,0,0,1-7.07,2.86,11,11,0,0,1-5-1.19,8.14,8.14,0,0,1-3.64-3.49A11.57,11.57,0,0,1,552.46,195.14Zm5.2.27a6.32,6.32,0,0,0,1.36,4.37,4.42,4.42,0,0,0,6.67,0,6.43,6.43,0,0,0,1.35-4.41,6.29,6.29,0,0,0-1.35-4.33,4.42,4.42,0,0,0-6.67,0A6.3,6.3,0,0,0,557.66,195.41Z" transform="translate(-18 -18)"/><path class="a" d="M581.09,205H576V185.81h4.71v2.73a8.31,8.31,0,0,1,2.18-2.55,4,4,0,0,1,2.19-.61,6.47,6.47,0,0,1,3.35,1l-1.57,4.42a4.53,4.53,0,0,0-2.39-.83,2.85,2.85,0,0,0-1.81.59,4,4,0,0,0-1.16,2.12,30.29,30.29,0,0,0-.43,6.43Z" transform="translate(-18 -18)"/><path class="a" d="M607.71,205l-9.47-26.49H604l6.7,19.61,6.49-19.61h5.67L613.41,205Z" transform="translate(-18 -18)"/><path class="a" d="M624.92,183.21v-4.7H630v4.7Zm0,21.79V185.81H630V205Z" transform="translate(-18 -18)"/><path class="a" d="M633.41,199.53l5.1-.78a3.75,3.75,0,0,0,1.32,2.25,4.46,4.46,0,0,0,2.78.77,5,5,0,0,0,3-.73,1.59,1.59,0,0,0,.67-1.35,1.33,1.33,0,0,0-.36-1,4.11,4.11,0,0,0-1.7-.67c-4.09-.9-6.69-1.73-7.79-2.47a5,5,0,0,1-2.27-4.32,5.33,5.33,0,0,1,2-4.19c1.31-1.13,3.35-1.7,6.1-1.7a10.72,10.72,0,0,1,5.86,1.28,6.64,6.64,0,0,1,2.64,3.8l-4.79.88a3,3,0,0,0-1.17-1.71,4.23,4.23,0,0,0-2.44-.6,5.58,5.58,0,0,0-2.88.56,1.21,1.21,0,0,0-.58,1,1.12,1.12,0,0,0,.51.92,19.2,19.2,0,0,0,4.74,1.43,14,14,0,0,1,5.67,2.26,4.68,4.68,0,0,1,1.59,3.77,5.82,5.82,0,0,1-2.21,4.54q-2.21,1.89-6.52,1.89a10.74,10.74,0,0,1-6.21-1.59A7.35,7.35,0,0,1,633.41,199.53Z" transform="translate(-18 -18)"/><path class="a" d="M668.41,205v-2.87a7.44,7.44,0,0,1-2.76,2.42,7.69,7.69,0,0,1-3.6.88,7,7,0,0,1-3.47-.85,5,5,0,0,1-2.22-2.38,10.59,10.59,0,0,1-.69-4.25V185.81h5.08v8.82a24.2,24.2,0,0,0,.28,5,2.6,2.6,0,0,0,1,1.44,3.1,3.1,0,0,0,1.88.54,4,4,0,0,0,2.33-.72,3.55,3.55,0,0,0,1.41-1.77,20.64,20.64,0,0,0,.38-5.17v-8.1h5.07V205Z" transform="translate(-18 -18)"/><path class="a" d="M682.18,191.67l-4.61-.83a7.18,7.18,0,0,1,2.67-4.12,9.82,9.82,0,0,1,5.64-1.34,12.28,12.28,0,0,1,5.06.8,5.09,5.09,0,0,1,2.34,2,10.43,10.43,0,0,1,.68,4.54l-.06,5.93a20.93,20.93,0,0,0,.24,3.73,11.14,11.14,0,0,0,.92,2.57h-5q-.19-.51-.48-1.5l-.18-.6a9.05,9.05,0,0,1-2.79,1.9,8,8,0,0,1-3.16.63,6.55,6.55,0,0,1-4.67-1.6,5.36,5.36,0,0,1-1.71-4.07,5.45,5.45,0,0,1,.78-2.9,5,5,0,0,1,2.18-2,16.73,16.73,0,0,1,4-1.18,27.71,27.71,0,0,0,4.93-1.25V192a2.62,2.62,0,0,0-.72-2.08,4.33,4.33,0,0,0-2.73-.63,3.61,3.61,0,0,0-2.12.54A3.7,3.7,0,0,0,682.18,191.67Zm6.79,4.12c-.65.21-1.68.47-3.09.77a9.12,9.12,0,0,0-2.76.89,2.1,2.1,0,0,0-1,1.79,2.49,2.49,0,0,0,.8,1.84,2.76,2.76,0,0,0,2,.78,4.36,4.36,0,0,0,2.62-.91,3.13,3.13,0,0,0,1.21-1.68,10.1,10.1,0,0,0,.2-2.47Z" transform="translate(-18 -18)"/><path class="a" d="M699,205V178.51H704V205Z" transform="translate(-18 -18)"/><path class="a" d="M719.55,205V178.51h19.64V183H724.9v5.87h13.3v4.46H724.9v7.21h14.8V205Z" transform="translate(-18 -18)"/><path class="a" d="M742,185.81h2.82v-1.44a9.48,9.48,0,0,1,.52-3.62,4,4,0,0,1,1.9-1.94,7.25,7.25,0,0,1,3.49-.75,14.27,14.27,0,0,1,4.25.65l-.69,3.54a10.17,10.17,0,0,0-2.33-.29,2.1,2.1,0,0,0-1.58.52,3,3,0,0,0-.48,2v1.35h3.79v4h-3.79V205h-5.08V189.81H742Z" transform="translate(-18 -18)"/><path class="a" d="M754.3,185.81h2.82v-1.44a9.72,9.72,0,0,1,.51-3.62,4.09,4.09,0,0,1,1.9-1.94,7.25,7.25,0,0,1,3.49-.75,14.27,14.27,0,0,1,4.25.65l-.69,3.54a10.17,10.17,0,0,0-2.33-.29,2.1,2.1,0,0,0-1.58.52,3,3,0,0,0-.48,2v1.35H766v4h-3.8V205h-5.07V189.81H754.3Z" transform="translate(-18 -18)"/><path class="a" d="M780,198.89l5.06.85a8.3,8.3,0,0,1-3.08,4.24,9,9,0,0,1-5.27,1.45q-5,0-7.4-3.27a10.93,10.93,0,0,1-1.9-6.61,10.6,10.6,0,0,1,2.49-7.47,8.22,8.22,0,0,1,6.31-2.7,8.49,8.49,0,0,1,6.75,2.83q2.48,2.82,2.37,8.66H772.56a5.14,5.14,0,0,0,1.23,3.51,3.84,3.84,0,0,0,2.93,1.26,3.12,3.12,0,0,0,2-.65A4,4,0,0,0,780,198.89Zm.29-5.13a4.93,4.93,0,0,0-1.14-3.35,3.51,3.51,0,0,0-2.64-1.15,3.54,3.54,0,0,0-2.74,1.21,4.73,4.73,0,0,0-1.07,3.29Z" transform="translate(-18 -18)"/><path class="a" d="M806.15,191.49l-5,.9a3.68,3.68,0,0,0-1.14-2.26,3.51,3.51,0,0,0-2.33-.76,3.79,3.79,0,0,0-3,1.31c-.76.88-1.13,2.34-1.13,4.38,0,2.28.38,3.89,1.15,4.83a3.76,3.76,0,0,0,3.08,1.41,3.4,3.4,0,0,0,2.36-.83,4.86,4.86,0,0,0,1.3-2.82l5,.85a8.87,8.87,0,0,1-3,5.18,9.22,9.22,0,0,1-5.91,1.75,8.79,8.79,0,0,1-6.71-2.65,10.29,10.29,0,0,1-2.5-7.36c0-3.16.83-5.63,2.51-7.39a8.9,8.9,0,0,1,6.79-2.65,9.2,9.2,0,0,1,5.57,1.51A8.39,8.39,0,0,1,806.15,191.49Z" transform="translate(-18 -18)"/><path class="a" d="M818.79,185.81v4.05h-3.47v7.73a20.31,20.31,0,0,0,.1,2.74,1.12,1.12,0,0,0,.46.64,1.4,1.4,0,0,0,.85.25,6.75,6.75,0,0,0,2-.48l.43,3.93a10,10,0,0,1-4,.76,6.34,6.34,0,0,1-2.48-.46,3.53,3.53,0,0,1-1.61-1.19,4.74,4.74,0,0,1-.72-2,24.49,24.49,0,0,1-.16-3.58v-8.36H807.9v-4.05h2.33V182l5.09-3v6.77Z" transform="translate(-18 -18)"/><path class="a" d="M820.53,199.53l5.09-.78a3.75,3.75,0,0,0,1.32,2.25,4.46,4.46,0,0,0,2.78.77,5,5,0,0,0,3-.73,1.62,1.62,0,0,0,.67-1.35,1.34,1.34,0,0,0-.37-1,4.11,4.11,0,0,0-1.7-.67c-4.09-.9-6.69-1.73-7.78-2.47a5,5,0,0,1-2.28-4.32,5.33,5.33,0,0,1,2-4.19q2-1.7,6.11-1.7a10.71,10.71,0,0,1,5.85,1.28,6.55,6.55,0,0,1,2.64,3.8l-4.79.88a2.89,2.89,0,0,0-1.16-1.71,4.26,4.26,0,0,0-2.45-.6,5.51,5.51,0,0,0-2.87.56,1.19,1.19,0,0,0-.58,1,1.13,1.13,0,0,0,.5.92A19.18,19.18,0,0,0,831.2,193a13.92,13.92,0,0,1,5.66,2.26,4.68,4.68,0,0,1,1.59,3.77,5.84,5.84,0,0,1-2.2,4.54q-2.21,1.89-6.53,1.89a10.68,10.68,0,0,1-6.2-1.59A7.31,7.31,0,0,1,820.53,199.53Z" transform="translate(-18 -18)"/><path class="a" d="M857,191.67l-4.61-.83a7.15,7.15,0,0,1,2.68-4.12,9.77,9.77,0,0,1,5.63-1.34,12.25,12.25,0,0,1,5.06.8,5,5,0,0,1,2.34,2,10.43,10.43,0,0,1,.68,4.54l-.06,5.93a19.82,19.82,0,0,0,.25,3.73,10.63,10.63,0,0,0,.91,2.57h-5a15.65,15.65,0,0,1-.49-1.5l-.18-.6a9.13,9.13,0,0,1-2.78,1.9,8,8,0,0,1-3.17.63,6.55,6.55,0,0,1-4.67-1.6,5.39,5.39,0,0,1-1.7-4.07,5.54,5.54,0,0,1,.77-2.9,5.1,5.1,0,0,1,2.18-2,16.73,16.73,0,0,1,4-1.18,27.46,27.46,0,0,0,4.93-1.25V192a2.62,2.62,0,0,0-.72-2.08,4.29,4.29,0,0,0-2.73-.63,3.58,3.58,0,0,0-2.11.54A3.64,3.64,0,0,0,857,191.67Zm6.79,4.12c-.65.21-1.68.47-3.09.77a9.12,9.12,0,0,0-2.76.89,2.1,2.1,0,0,0-1,1.79,2.49,2.49,0,0,0,.8,1.84,2.76,2.76,0,0,0,2,.78,4.34,4.34,0,0,0,2.62-.91,3.08,3.08,0,0,0,1.21-1.68,10.1,10.1,0,0,0,.2-2.47Z" transform="translate(-18 -18)"/><path class="a" d="M891.2,205h-5.07v-9.79a14.94,14.94,0,0,0-.33-4,2.88,2.88,0,0,0-1-1.42,3,3,0,0,0-1.77-.51,4,4,0,0,0-2.36.73,3.65,3.65,0,0,0-1.44,1.91,16.55,16.55,0,0,0-.39,4.41V205h-5.08V185.81h4.72v2.82a7.67,7.67,0,0,1,6.32-3.25,7.56,7.56,0,0,1,3.08.61,5.14,5.14,0,0,1,2.1,1.54,5.48,5.48,0,0,1,1,2.13,15.68,15.68,0,0,1,.28,3.42Z" transform="translate(-18 -18)"/><path class="a" d="M914,205h-4.72v-2.82a7.56,7.56,0,0,1-2.77,2.45,7.06,7.06,0,0,1-3.22.8,7.29,7.29,0,0,1-5.67-2.66q-2.36-2.67-2.36-7.44t2.3-7.41a7.49,7.49,0,0,1,5.8-2.54,7.18,7.18,0,0,1,5.56,2.67v-9.54H914ZM900.4,195a8.77,8.77,0,0,0,.85,4.45,3.84,3.84,0,0,0,3.43,2,3.71,3.71,0,0,0,3-1.49,6.87,6.87,0,0,0,1.23-4.45c0-2.2-.4-3.79-1.19-4.76a3.91,3.91,0,0,0-6.08,0A6.51,6.51,0,0,0,900.4,195Z" transform="translate(-18 -18)"/><path class="a" d="M929.27,205V178.51h8.58a31.47,31.47,0,0,1,6.36.4A6.93,6.93,0,0,1,948,181.5a8.2,8.2,0,0,1,1.54,5.16,8.6,8.6,0,0,1-.89,4.1,7.22,7.22,0,0,1-2.25,2.61,7.71,7.71,0,0,1-2.77,1.26,30.79,30.79,0,0,1-5.55.38h-3.48v10Zm5.35-22v7.51h2.92a14.13,14.13,0,0,0,4.23-.41,3.51,3.51,0,0,0,2.28-3.37,3.45,3.45,0,0,0-.85-2.38,3.64,3.64,0,0,0-2.15-1.17,25.82,25.82,0,0,0-3.85-.18Z" transform="translate(-18 -18)"/><path class="a" d="M952.74,195.14a10.39,10.39,0,0,1,1.24-4.9,8.56,8.56,0,0,1,3.54-3.61,10.36,10.36,0,0,1,5.1-1.25,9.58,9.58,0,0,1,7.14,2.83,9.76,9.76,0,0,1,2.78,7.14,9.91,9.91,0,0,1-2.81,7.22,9.48,9.48,0,0,1-7.07,2.86,11,11,0,0,1-5-1.19,8.22,8.22,0,0,1-3.65-3.49A11.68,11.68,0,0,1,952.74,195.14Zm5.2.27a6.32,6.32,0,0,0,1.36,4.37,4.42,4.42,0,0,0,6.67,0,6.43,6.43,0,0,0,1.35-4.41A6.29,6.29,0,0,0,966,191a4.42,4.42,0,0,0-6.67,0A6.3,6.3,0,0,0,957.94,195.41Z" transform="translate(-18 -18)"/><path class="a" d="M974.72,199.53l5.1-.78a3.75,3.75,0,0,0,1.32,2.25,4.46,4.46,0,0,0,2.78.77,5,5,0,0,0,3-.73,1.59,1.59,0,0,0,.67-1.35,1.33,1.33,0,0,0-.36-1,4.11,4.11,0,0,0-1.7-.67c-4.09-.9-6.69-1.73-7.78-2.47a5,5,0,0,1-2.28-4.32,5.33,5.33,0,0,1,2-4.19c1.31-1.13,3.35-1.7,6.1-1.7a10.72,10.72,0,0,1,5.86,1.28,6.64,6.64,0,0,1,2.64,3.8l-4.79.88a2.91,2.91,0,0,0-1.17-1.71,4.23,4.23,0,0,0-2.44-.6,5.58,5.58,0,0,0-2.88.56,1.21,1.21,0,0,0-.58,1,1.12,1.12,0,0,0,.51.92,19.2,19.2,0,0,0,4.74,1.43,14,14,0,0,1,5.67,2.26,4.68,4.68,0,0,1,1.59,3.77,5.82,5.82,0,0,1-2.21,4.54q-2.21,1.89-6.52,1.89a10.74,10.74,0,0,1-6.21-1.59A7.35,7.35,0,0,1,974.72,199.53Z" transform="translate(-18 -18)"/><path class="a" d="M1005.89,185.81v4.05h-3.47v7.73a18.59,18.59,0,0,0,.1,2.74,1.15,1.15,0,0,0,.45.64,1.43,1.43,0,0,0,.86.25,6.64,6.64,0,0,0,2-.48l.43,3.93a10,10,0,0,1-4,.76,6.29,6.29,0,0,1-2.47-.46,3.51,3.51,0,0,1-1.62-1.19,4.74,4.74,0,0,1-.71-2,24.49,24.49,0,0,1-.16-3.58v-8.36H995v-4.05h2.33V182l5.09-3v6.77Z" transform="translate(-18 -18)"/><path class="a" d="M1019.73,205V178.51h8.58a31.47,31.47,0,0,1,6.36.4,6.93,6.93,0,0,1,3.81,2.59,8.27,8.27,0,0,1,1.54,5.16,8.6,8.6,0,0,1-.89,4.1,7.22,7.22,0,0,1-2.25,2.61,7.71,7.71,0,0,1-2.77,1.26,30.86,30.86,0,0,1-5.55.38h-3.48v10Zm5.35-22v7.51H1028a14.13,14.13,0,0,0,4.23-.41,3.53,3.53,0,0,0,1.67-1.31,3.57,3.57,0,0,0,.61-2.06,3.45,3.45,0,0,0-.85-2.38,3.64,3.64,0,0,0-2.15-1.17,25.82,25.82,0,0,0-3.85-.18Z" transform="translate(-18 -18)"/><path class="a" d="M1049.23,205h-5.08V185.81h4.72v2.73a8.17,8.17,0,0,1,2.18-2.55,4,4,0,0,1,2.19-.61,6.41,6.41,0,0,1,3.34,1l-1.57,4.42a4.47,4.47,0,0,0-2.38-.83,2.83,2.83,0,0,0-1.81.59,4,4,0,0,0-1.16,2.12,29.61,29.61,0,0,0-.43,6.43Z" transform="translate(-18 -18)"/><path class="a" d="M1057.6,195.14a10.39,10.39,0,0,1,1.24-4.9,8.54,8.54,0,0,1,3.53-3.61,10.42,10.42,0,0,1,5.11-1.25,9.54,9.54,0,0,1,7.13,2.83,9.73,9.73,0,0,1,2.79,7.14,9.91,9.91,0,0,1-2.81,7.22,9.5,9.5,0,0,1-7.08,2.86,11.08,11.08,0,0,1-5-1.19,8.19,8.19,0,0,1-3.64-3.49A11.68,11.68,0,0,1,1057.6,195.14Zm5.2.27a6.37,6.37,0,0,0,1.35,4.37,4.43,4.43,0,0,0,6.68,0,6.43,6.43,0,0,0,1.34-4.41,6.29,6.29,0,0,0-1.34-4.33,4.43,4.43,0,0,0-6.68,0A6.35,6.35,0,0,0,1062.8,195.41Z" transform="translate(-18 -18)"/><path class="a" d="M1099,205h-4.72v-2.82a7.64,7.64,0,0,1-2.77,2.45,7.07,7.07,0,0,1-3.23.8,7.29,7.29,0,0,1-5.66-2.66q-2.35-2.67-2.36-7.44t2.3-7.41a7.49,7.49,0,0,1,5.8-2.54,7.19,7.19,0,0,1,5.56,2.67v-9.54H1099Zm-13.55-10a8.77,8.77,0,0,0,.85,4.45,3.84,3.84,0,0,0,3.43,2,3.71,3.71,0,0,0,3-1.49,6.87,6.87,0,0,0,1.23-4.45c0-2.2-.4-3.79-1.19-4.76a3.91,3.91,0,0,0-6.08,0A6.46,6.46,0,0,0,1085.42,195Z" transform="translate(-18 -18)"/><path class="a" d="M1116.6,205v-2.87a7.48,7.48,0,0,1-2.75,2.42,7.73,7.73,0,0,1-3.61.88,7,7,0,0,1-3.47-.85,5,5,0,0,1-2.22-2.38,10.59,10.59,0,0,1-.69-4.25V185.81h5.08v8.82a24.2,24.2,0,0,0,.28,5,2.7,2.7,0,0,0,1,1.44,3.1,3.1,0,0,0,1.88.54,4,4,0,0,0,2.33-.72,3.55,3.55,0,0,0,1.41-1.77,20.64,20.64,0,0,0,.38-5.17v-8.1h5.08V205Z" transform="translate(-18 -18)"/><path class="a" d="M1143.3,191.49l-5,.9a3.64,3.64,0,0,0-1.15-2.26,3.5,3.5,0,0,0-2.32-.76,3.81,3.81,0,0,0-3,1.31,6.75,6.75,0,0,0-1.13,4.38c0,2.28.39,3.89,1.15,4.83a3.77,3.77,0,0,0,3.08,1.41,3.42,3.42,0,0,0,2.37-.83,4.92,4.92,0,0,0,1.3-2.82l5,.85a8.82,8.82,0,0,1-3,5.18,9.21,9.21,0,0,1-5.9,1.75,8.76,8.76,0,0,1-6.71-2.65,10.29,10.29,0,0,1-2.51-7.36c0-3.16.84-5.63,2.51-7.39a8.92,8.92,0,0,1,6.8-2.65,9.24,9.24,0,0,1,5.57,1.51A8.32,8.32,0,0,1,1143.3,191.49Z" transform="translate(-18 -18)"/><path class="a" d="M1156,185.81v4.05h-3.47v7.73a18.59,18.59,0,0,0,.1,2.74,1.15,1.15,0,0,0,.45.64,1.43,1.43,0,0,0,.86.25,6.64,6.64,0,0,0,2-.48l.43,3.93a10,10,0,0,1-4,.76,6.29,6.29,0,0,1-2.47-.46,3.56,3.56,0,0,1-1.62-1.19,4.74,4.74,0,0,1-.71-2,24,24,0,0,1-.17-3.58v-8.36h-2.33v-4.05h2.33V182l5.1-3v6.77Z" transform="translate(-18 -18)"/><path class="a" d="M1159.47,183.21v-4.7h5.08v4.7Zm0,21.79V185.81h5.08V205Z" transform="translate(-18 -18)"/><path class="a" d="M1168.58,195.14a10.39,10.39,0,0,1,1.24-4.9,8.51,8.51,0,0,1,3.54-3.61,10.36,10.36,0,0,1,5.1-1.25,9.58,9.58,0,0,1,7.14,2.83,9.76,9.76,0,0,1,2.78,7.14,9.91,9.91,0,0,1-2.81,7.22,9.48,9.48,0,0,1-7.07,2.86,11.12,11.12,0,0,1-5-1.19,8.19,8.19,0,0,1-3.64-3.49A11.68,11.68,0,0,1,1168.58,195.14Zm5.2.27a6.37,6.37,0,0,0,1.35,4.37,4.43,4.43,0,0,0,6.68,0,6.43,6.43,0,0,0,1.35-4.41,6.29,6.29,0,0,0-1.35-4.33,4.43,4.43,0,0,0-6.68,0A6.35,6.35,0,0,0,1173.78,195.41Z" transform="translate(-18 -18)"/><path class="a" d="M1209.8,205h-5.07v-9.79a14.94,14.94,0,0,0-.33-4,2.82,2.82,0,0,0-1.05-1.42,3,3,0,0,0-1.77-.51,4,4,0,0,0-2.36.73,3.65,3.65,0,0,0-1.44,1.91,16.55,16.55,0,0,0-.39,4.41V205h-5.07V185.81H1197v2.82a7.68,7.68,0,0,1,6.33-3.25,7.55,7.55,0,0,1,3.07.61,5.14,5.14,0,0,1,2.1,1.54,5.65,5.65,0,0,1,1,2.13,16.47,16.47,0,0,1,.27,3.42Z" transform="translate(-18 -18)"/></svg>