<?xml version="1.0" encoding="UTF-8" standalone="no"?>
<svg
   xmlns:dc="http://purl.org/dc/elements/1.1/"
   xmlns:cc="http://creativecommons.org/ns#"
   xmlns:rdf="http://www.w3.org/1999/02/22-rdf-syntax-ns#"
   xmlns:svg="http://www.w3.org/2000/svg"
   xmlns="http://www.w3.org/2000/svg"
   version="1.1"
   id="svg2"
   viewBox="0 0 1579.9133 213.66604"
   height="2.3740671in"
   width="17.554592in">
  <defs
     id="defs4">
    <clipPath
       clipPathUnits="userSpaceOnUse"
       id="clipPath5015">
      <path
         d="M 0,90 432,90 432,0 0,0 0,90 Z"
         id="path5017" />
    </clipPath>
  </defs>
  <metadata
     id="metadata7">
    <rdf:RDF>
      <cc:Work
         rdf:about="">
        <dc:format>image/svg+xml</dc:format>
        <dc:type
           rdf:resource="http://purl.org/dc/dcmitype/StillImage" />
        <dc:title></dc:title>
      </cc:Work>
    </rdf:RDF>
  </metadata>
  <g
     transform="translate(-200.04331,620.44735)"
     id="layer1">
    <g
       transform="matrix(2.9286112,0,0,2.9286112,-2027.5109,-1927.0677)"
       style="fill:#ffffff;fill-opacity:1"
       id="g5120">
      <g
         id="g5019"
         transform="matrix(1.25,0,0,-1.25,836.33451,453.84031)"
         style="fill:#ffffff;fill-opacity:1">
        <path
           d="m 0,0 c 0.129,-0.021 0.193,-0.086 0.193,-0.193 l 0,-45.688 c 0,-0.128 -0.064,-0.192 -0.193,-0.192 l -13.526,0 c -0.129,0 -0.193,0.064 -0.193,0.192 l 0,33.19 -6.49,0 0,-33.19 c 0,-0.128 -0.076,-0.192 -0.225,-0.192 l -13.494,0 c -0.129,0 -0.193,0.064 -0.193,0.192 l 0,33.19 -6.394,0 0,-33.19 c 0,-0.128 -0.064,-0.192 -0.193,-0.192 l -13.494,0 c -0.15,0 -0.225,0.064 -0.225,0.192 l 0,45.688 C -54.406,-0.064 -54.331,0 -54.202,0 L 0,0 Z"
           style="fill:#ffffff;fill-opacity:1;fill-rule:nonzero;stroke:none"
           id="path5021" />
      </g>
      <g
         id="g5023"
         transform="matrix(1.25,0,0,-1.25,840.59163,454.08143)"
         style="fill:#ffffff;fill-opacity:1">
        <path
           d="m 0,0 c 0.021,0.128 0.097,0.193 0.225,0.193 l 54.202,0 C 54.556,0.171 54.62,0.107 54.62,0 l 0,-12.177 c 0,-0.129 -0.064,-0.193 -0.193,-0.193 l -40.483,0 0,-4.241 40.483,0 c 0.129,-0.021 0.193,-0.086 0.193,-0.193 l 0,-12.176 c 0,-0.129 -0.064,-0.193 -0.193,-0.193 l -40.483,0 0,-4.145 40.483,0 c 0.129,-0.021 0.193,-0.086 0.193,-0.193 l 0,-12.177 c 0,-0.128 -0.064,-0.192 -0.193,-0.192 l -54.202,0 C 0.075,-45.88 0,-45.816 0,-45.688 L 0,0 Z"
           style="fill:#ffffff;fill-opacity:1;fill-rule:nonzero;stroke:none"
           id="path5025" />
      </g>
      <g
         id="g5027"
         transform="matrix(1.25,0,0,-1.25,937.78276,469.94506)"
         style="fill:#ffffff;fill-opacity:1">
        <path
           d="m 0,0 -19.695,0 c -0.15,0 -0.225,0.064 -0.225,0.193 l 0,12.498 c 0.021,0.128 0.096,0.193 0.225,0.193 l 54.202,0 C 34.635,12.862 34.7,12.798 34.7,12.691 l 0,-12.498 C 34.7,0.064 34.635,0 34.507,0 l -19.824,0 0,-32.997 c 0,-0.128 -0.075,-0.192 -0.225,-0.192 l -14.233,0 C 0.075,-33.189 0,-33.125 0,-32.997 L 0,0 Z"
           style="fill:#ffffff;fill-opacity:1;fill-rule:nonzero;stroke:none"
           id="path5029" />
      </g>
      <path
         d="m 1002.5636,474.84481 33.4938,0 0,-5.30125 -33.4938,0 0,5.30125 z m 0,15.70375 0,20.6425 c 0,0.16125 -0.08,0.24125 -0.2412,0.24125 l -16.86752,0 c -0.1875,0 -0.28125,-0.08 -0.28125,-0.24125 l 0,-57.11 c 0.0263,-0.16 0.12,-0.24125 0.28125,-0.24125 l 67.71252,0 c 0.1875,0.0275 0.2812,0.1075 0.2812,0.24125 l 0,57.11 c 0,0.16125 -0.094,0.24125 -0.2812,0.24125 l -16.8688,0 c -0.16,0 -0.2412,-0.08 -0.2412,-0.24125 l 0,-20.6425 -33.4938,0 z"
         style="fill:#ffffff;fill-opacity:1;fill-rule:nonzero;stroke:none"
         id="path5031" />
      <path
         d="m 1074.9749,474.84481 33.415,0 0,-5.30125 -33.415,0 0,5.30125 z m -17.51,-20.76375 c 0.026,-0.16 0.1212,-0.24125 0.2812,-0.24125 l 67.7525,0 c 0.1613,0.0275 0.2413,0.1075 0.2413,0.24125 l 0,36.22625 c 0,0.16 -0.08,0.24125 -0.2413,0.24125 l -50.6037,0 0,20.6425 c 0,0.16125 -0.094,0.24125 -0.2813,0.24125 l -16.8675,0 c -0.1875,0 -0.2812,-0.08 -0.2812,-0.24125 l 0,-57.11 z"
         style="fill:#ffffff;fill-opacity:1;fill-rule:nonzero;stroke:none"
         id="path5033" />
      <g
         id="g5035"
         transform="matrix(1.25,0,0,-1.25,1147.5473,453.84031)"
         style="fill:#ffffff;fill-opacity:1">
        <path
           d="m 0,0 c 0.15,-0.021 0.225,-0.086 0.225,-0.193 l 0,-45.688 c 0,-0.128 -0.075,-0.192 -0.225,-0.192 l -14.008,0 c -0.15,0 -0.225,0.064 -0.225,0.192 l 0,45.688 C -14.212,-0.064 -14.137,0 -14.008,0 L 0,0 Z"
           style="fill:#ffffff;fill-opacity:1;fill-rule:nonzero;stroke:none"
           id="path5037" />
      </g>
      <path
         d="m 1169.3549,474.84481 33.4137,0 0,-5.30125 -33.4137,0 0,5.30125 z m -17.51,-20.76375 c 0.026,-0.16 0.1212,-0.24125 0.2812,-0.24125 l 67.7525,0 c 0.1613,0.0275 0.24,0.1075 0.24,0.24125 l 0,36.22625 c 0,0.16 -0.079,0.24125 -0.24,0.24125 l -50.6037,0 0,20.6425 c 0,0.16125 -0.094,0.24125 -0.2813,0.24125 l -16.8675,0 c -0.1875,0 -0.2812,-0.08 -0.2812,-0.24125 l 0,-57.11 z"
         style="fill:#ffffff;fill-opacity:1;fill-rule:nonzero;stroke:none"
         id="path5039" />
      <g
         id="g5041"
         transform="matrix(1.25,0,0,-1.25,1224.1354,454.08143)"
         style="fill:#ffffff;fill-opacity:1">
        <path
           d="m 0,0 c 0.021,0.128 0.097,0.193 0.225,0.193 l 54.202,0 C 54.556,0.171 54.62,0.107 54.62,0 l 0,-12.177 c 0,-0.129 -0.064,-0.193 -0.193,-0.193 l -40.483,0 0,-4.241 40.483,0 c 0.129,-0.021 0.193,-0.086 0.193,-0.193 l 0,-12.176 c 0,-0.129 -0.064,-0.193 -0.193,-0.193 l -40.483,0 0,-4.145 40.483,0 c 0.129,-0.021 0.193,-0.086 0.193,-0.193 l 0,-12.177 c 0,-0.128 -0.064,-0.192 -0.193,-0.192 l -54.202,0 C 0.075,-45.88 0,-45.816 0,-45.688 L 0,0 Z"
           style="fill:#ffffff;fill-opacity:1;fill-rule:nonzero;stroke:none"
           id="path5043" />
      </g>
    </g>
  </g>
</svg>
